<svg xmlns="http://www.w3.org/2000/svg" viewBox="0 0 64 64" role="img" aria-labelledby="title desc">
  <title id="title">BackgroundErase</title>
  <desc id="desc">BackgroundErase app icon</desc>
  <rect width="64" height="64" rx="14" fill="#111827"/>
  <path fill="#34D399" d="M18 18h18.5c6.2 0 10.1 3.3 10.1 8.5 0 3.5-1.7 5.9-4.7 7.1 3.8 1.1 6.1 4 6.1 8.2 0 5.9-4.4 9.2-11.3 9.2H18V18Zm16.8 13c2.5 0 4.1-1.3 4.1-3.5s-1.6-3.5-4.1-3.5h-8.6v7h8.6Zm1.2 14c2.8 0 4.5-1.4 4.5-3.9 0-2.4-1.7-3.9-4.5-3.9h-9.8V45H36Z"/>
  <path fill="#F9FAFB" d="M16 14h32v5H16zM16 49h32v5H16z" opacity=".86"/>
</svg>
